<svg xmlns="http://www.w3.org/2000/svg" version="1.1" xmlns:xlink="http://www.w3.org/1999/xlink" xmlns:svgjs="http://svgjs.dev/svgjs" width="2000" height="272" viewBox="0 0 2000 272"><g transform="matrix(1,0,0,1,-1.2121212121212466,0.29383313491436525)"><svg viewBox="0 0 396 54" data-background-color="#ffffff" preserveAspectRatio="xMidYMid meet" height="272" width="2000" xmlns="http://www.w3.org/2000/svg" xmlns:xlink="http://www.w3.org/1999/xlink"><g id="tight-bounds" transform="matrix(1,0,0,1,0.2400000000000091,-0.05833451943152568)"><svg viewBox="0 0 395.52 54.116669038863066" height="54.116669038863066" width="395.52"><g><svg viewBox="0 0 473.8623510133906 64.83579090758803" height="54.116669038863066" width="395.52"><g transform="matrix(1,0,0,1,78.34235101339064,3.8115142337576486)"><svg viewBox="0 0 395.52 57.21276244007274" height="57.21276244007274" width="395.52"><g id="textblocktransform"><svg viewBox="0 0 395.52 57.21276244007274" height="57.21276244007274" width="395.52" id="textblock"><g><svg viewBox="0 0 395.52 57.21276244007274" height="57.21276244007274" width="395.52"><g transform="matrix(1,0,0,1,0,0)"><svg width="395.52" viewBox="1.55 -43.35 302.42 43.75" height="57.21276244007274" data-palette-color="#335a02"><path d="M11.9 0.4Q7.2 0.4 4.38-2.55 1.55-5.5 1.55-10.65L1.55-10.65 1.55-30.45Q1.55-36.85 4.1-40.1 6.65-43.35 12.1-43.35L12.1-43.35Q16.85-43.35 19.75-40.75 22.65-38.15 22.65-33.25L22.65-33.25 22.65-25.85 14.1-25.85 14.1-32.2Q14.1-34.05 13.65-34.75 13.2-35.45 12.1-35.45L12.1-35.45Q10.95-35.45 10.53-34.65 10.1-33.85 10.1-32.3L10.1-32.3 10.1-10.75Q10.1-9.05 10.6-8.28 11.1-7.5 12.1-7.5L12.1-7.5Q14.1-7.5 14.1-10.75L14.1-10.75 14.1-18.5 22.75-18.5 22.75-10.4Q22.75 0.4 11.9 0.4L11.9 0.4ZM32.8 0L24.45 0 28.6-42.95 43.15-42.95 47.25 0 39.1 0 38.5-6.95 33.3-6.95 32.8 0ZM35.55-35.65L33.95-13.8 37.85-13.8 35.95-35.65 35.55-35.65ZM57.6 0L49.85 0 49.85-42.95 62.95-42.95 66.55-16.75 70.15-42.95 83.34-42.95 83.34 0 75.5 0 75.5-30.95 70.55 0 62.85 0 57.6-30.95 57.6 0ZM94.34 0L85.99 0 90.14-42.95 104.69-42.95 108.79 0 100.64 0 100.04-6.95 94.84-6.95 94.34 0ZM97.09-35.65L95.49-13.8 99.39-13.8 97.49-35.65 97.09-35.65ZM111.39 0L111.39-42.95 124.59-42.95Q127.74-42.95 129.47-41.53 131.19-40.1 131.79-37.52 132.39-34.95 132.39-30.95L132.39-30.95Q132.39-27.3 131.44-25.25 130.49-23.2 128.14-22.4L128.14-22.4Q130.09-22 130.97-20.45 131.84-18.9 131.84-16.25L131.84-16.25 131.74 0 123.34 0 123.34-16.8Q123.34-18.6 122.64-19.1 121.94-19.6 120.09-19.6L120.09-19.6 120.09 0 111.39 0ZM120.14-27.05L122.19-27.05Q123.99-27.05 123.99-30.95L123.99-30.95Q123.99-32.65 123.84-33.5 123.69-34.35 123.29-34.68 122.89-35 122.14-35L122.14-35 120.14-35 120.14-27.05ZM142.44 0L134.09 0 138.24-42.95 152.79-42.95 156.89 0 148.74 0 148.14-6.95 142.94-6.95 142.44 0ZM145.19-35.65L143.59-13.8 147.49-13.8 145.59-35.65 145.19-35.65ZM188.63 0L171.18 0 171.18-42.95 179.78-42.95 179.78-7.3 188.63-7.3 188.63 0ZM208.78 0L191.03 0 191.03-42.95 208.23-42.95 208.23-34.65 199.78-34.65 199.78-26.3 207.88-26.3 207.88-18.2 199.78-18.2 199.78-8.35 208.78-8.35 208.78 0ZM220.48 0.4Q215.83 0.4 213.55-2.88 211.28-6.15 211.28-12.8L211.28-12.8 211.28-31.3Q211.28-37.25 213.93-40.3 216.58-43.35 221.83-43.35L221.83-43.35Q226.08-43.35 228.43-41.65 230.78-39.95 231.68-36.7 232.58-33.45 232.58-28.35L232.58-28.35 224.18-28.35 224.18-32.2Q224.18-33.75 223.75-34.6 223.33-35.45 222.23-35.45L222.23-35.45Q219.78-35.45 219.78-32.25L219.78-32.25 219.78-11.45Q219.78-9.5 220.28-8.5 220.78-7.5 222.03-7.5L222.03-7.5Q223.28-7.5 223.78-8.5 224.28-9.5 224.28-11.45L224.28-11.45 224.28-17.6 221.98-17.6 221.98-25 232.48-25 232.48 0 229.03 0 227.58-3.6Q225.28 0.4 220.48 0.4L220.48 0.4ZM243.07 0L234.72 0 238.88-42.95 253.43-42.95 257.52 0 249.38 0 248.78-6.95 243.57-6.95 243.07 0ZM245.82-35.65L244.22-13.8 248.13-13.8 246.22-35.65 245.82-35.65ZM270.12 0.4Q265.42 0.4 262.6-2.55 259.77-5.5 259.77-10.65L259.77-10.65 259.77-30.45Q259.77-36.85 262.32-40.1 264.87-43.35 270.32-43.35L270.32-43.35Q275.07-43.35 277.97-40.75 280.87-38.15 280.87-33.25L280.87-33.25 280.87-25.85 272.32-25.85 272.32-32.2Q272.32-34.05 271.87-34.75 271.42-35.45 270.32-35.45L270.32-35.45Q269.17-35.45 268.75-34.65 268.32-33.85 268.32-32.3L268.32-32.3 268.32-10.75Q268.32-9.05 268.82-8.28 269.32-7.5 270.32-7.5L270.32-7.5Q272.32-7.5 272.32-10.75L272.32-10.75 272.32-18.5 280.97-18.5 280.97-10.4Q280.97 0.4 270.12 0.4L270.12 0.4ZM297.12 0L289.02 0 289.02-14.15 282.17-42.95 290.67-42.95 293.07-28.4 295.47-42.95 303.97-42.95 297.12-14.15 297.12 0Z" opacity="1" transform="matrix(1,0,0,1,0,0)" fill="#335a02" class="wordmark-text-0" data-fill-palette-color="primary" id="text-0"></path></svg></g></svg></g></svg></g></svg></g><g><svg viewBox="0 0 64.83579090758803 64.83579090758803" height="64.83579090758803" width="64.83579090758803"><g><svg xmlns="http://www.w3.org/2000/svg" xmlns:xlink="http://www.w3.org/1999/xlink" version="1.0" x="0" y="0" viewBox="20 20 60 60" enable-background="new 0 0 100 100" xml:space="preserve" height="64.83579090758803" width="64.83579090758803" class="icon-icon-0" data-fill-palette-color="accent" id="icon-0"><path d="M20 26.667A6.67 6.67 0 0 1 26.667 33.334V63.334C26.667 72.539 34.128 80 43.333 80S60 72.539 60 63.334V40A3.33 3.33 0 0 1 63.333 36.667 3.33 3.33 0 0 1 66.667 40V56.666C66.667 64.023 72.637 70 80 70V63.334A6.67 6.67 0 0 1 73.333 56.666V40C73.333 34.476 68.854 30 63.333 30S53.333 34.476 53.333 40V63.334C53.333 68.857 48.854 73.334 43.333 73.334S33.333 68.857 33.333 63.334V33.334C33.333 25.973 27.363 20 20 20z" fill="#99a28e" data-fill-palette-color="accent"></path></svg></g></svg></g></svg></g><defs></defs></svg><rect width="395.52" height="54.116669038863066" fill="none" stroke="none" visibility="hidden"></rect></g></svg></g></svg>